<svg width="14" height="16" viewBox="0 0 14 16" fill="none" xmlns="http://www.w3.org/2000/svg">
<path d="M0.75342 14.8148C1.09709 13.4365 1.88432 12.2095 2.99389 11.3226C4.10345 10.4357 5.47381 9.9381 6.89393 9.90653C8.31406 9.87495 9.70518 10.3111 10.8531 11.1478C12.001 11.9845 12.842 13.1754 13.2465 14.537" stroke="#111111" stroke-width="1.5" stroke-linecap="round" stroke-linejoin="round"/>
<path d="M7.31162 7.19286H6.68493C5.89971 7.19286 5.14665 6.88094 4.59142 6.3257C4.03618 5.77047 3.72425 5.01741 3.72425 4.23218V3.96119C3.72425 3.11038 4.06224 2.29441 4.66385 1.6928C5.26546 1.09119 6.08142 0.75321 6.93222 0.75321C7.37142 0.752765 7.80639 0.838951 8.21224 1.00682C8.61809 1.17469 8.98685 1.42094 9.2974 1.7315C9.60796 2.04206 9.85422 2.41082 10.0221 2.81666C10.19 3.22251 10.2761 3.65748 10.2757 4.09668V4.23218C10.2757 5.01741 9.96376 5.77047 9.40853 6.3257C8.85329 6.88094 8.10023 7.19286 7.31501 7.19286H7.31162Z" stroke="#111111" stroke-width="1.5" stroke-linecap="round" stroke-linejoin="round"/>
</svg>
