<svg width="17" height="15" viewBox="0 0 17 15" fill="none" xmlns="http://www.w3.org/2000/svg">
<path d="M14.532 1.39321C13.7421 0.898555 12.8064 0.690014 11.8812 0.802461C10.9561 0.914909 10.0976 1.34152 9.44918 2.01099L8.50217 2.94321H8.47997L7.54404 2.01099C6.89566 1.34152 6.03714 0.914909 5.11197 0.802461C4.18681 0.690014 3.25108 0.898555 2.46121 1.39321C1.99961 1.69214 1.61047 2.09023 1.3221 2.55851C1.03372 3.02679 0.853382 3.55347 0.794206 4.10023C0.73503 4.64698 0.798503 5.20004 0.980006 5.71917C1.16151 6.23831 1.45648 6.71044 1.84344 7.10122L8.45407 14.0818L8.58724 13.9486L8.62795 13.9893L15.1609 7.10122C15.5473 6.70969 15.8416 6.2369 16.0222 5.71729C16.2028 5.19768 16.2653 4.64433 16.205 4.09753C16.1448 3.55073 15.9633 3.02425 15.6739 2.55643C15.3845 2.08861 14.9944 1.69122 14.532 1.39321V1.39321Z" stroke="#111111" stroke-width="1.5" stroke-linecap="round" stroke-linejoin="round"/>
</svg>
