<svg width="16" height="16" viewBox="0 0 16 16" fill="none" xmlns="http://www.w3.org/2000/svg">
<path d="M13.8029 15.2259H2.07737C1.89744 15.2269 1.72348 15.1649 1.58906 15.0518C1.45465 14.9387 1.36932 14.7825 1.34953 14.6134L0.774542 6.45513C0.771512 6.36399 0.788259 6.27322 0.823764 6.18843C0.859269 6.10364 0.912769 6.02662 0.980969 5.96214C1.04917 5.89766 1.13063 5.84707 1.2203 5.8135C1.30998 5.77993 1.40598 5.7641 1.50238 5.76696H14.498C14.691 5.76696 14.8761 5.83947 15.0126 5.96852C15.1491 6.09758 15.2258 6.27262 15.2258 6.45513L14.5307 14.6203C14.5093 14.7881 14.4232 14.9426 14.289 15.0543C14.1547 15.166 13.9817 15.2271 13.8029 15.2259V15.2259Z" stroke="#111111" stroke-width="1.5" stroke-linecap="round" stroke-linejoin="round"/>
<path d="M4.35912 7.99999V4.21505C4.35912 3.30248 4.74255 2.42728 5.42503 1.78199C6.10751 1.13671 7.03315 0.774194 7.99832 0.774194C8.9635 0.774194 9.88915 1.13671 10.5716 1.78199C11.2541 2.42728 11.6375 3.30248 11.6375 4.21505V7.99999" stroke="#111111" stroke-width="1.5" stroke-linecap="round" stroke-linejoin="round"/>
</svg>
